<svg version="1.2" xmlns="http://www.w3.org/2000/svg" viewBox="0 0 512 512" width="30" height="30">
	<title>shopping-cart-svg</title>
	<style>
		.s0 { fill: #000000 } 
	</style>
	<g id="Layer">
		<g id="Layer">
			<path id="Layer" fill-rule="evenodd" class="s0" d="m486.4 366c-9.4 16.6-26.1 27-45.9 27h-287.7v-20.6h287.6c13.6 0 21.2-8.6 26.1-15.6 11-22.6-17.5-40.5-17.5-40.5h-289l-50-238.8-99-47.8 9.4-18.7 108.4 52.9 12.5 59.2h359.7l-36.5 178c0 0 40.3 30.5 21.9 64.9zm-41.7-70.6l31.3-151.6h-330.5l32.3 151.6z"/>
			<path id="Layer" fill-rule="evenodd" class="s0" d="m251.8 461.5c0 21.8-17.7 39.4-39.6 39.4-21.9 0-39.6-17.6-39.6-39.4 0-21.8 17.7-39.4 39.6-39.4 21.9 0 39.6 17.6 39.6 39.4zm-20.8 0c0-10.4-8.3-18.7-18.8-18.7-10.5 0-18.8 8.3-18.8 18.7 0 10.4 8.4 18.7 18.8 18.7 10.4 0 18.8-8.3 18.8-18.7z"/>
			<path id="Layer" fill-rule="evenodd" class="s0" d="m464.5 461.6c1.1 21.8-17.7 39.4-39.6 39.4-21.9 0-39.6-17.7-39.6-39.5 0-21.8 17.7-39.4 39.6-39.4 21.9 0 39.6 17.7 39.6 39.5zm-39.6-18.7c-10.5 0-18.8 8.3-18.8 18.7 0 10.4 8.3 18.7 18.8 18.7 10.5 0 18.8-8.3 18.8-18.7 1-10.4-8.3-18.7-18.8-18.7z"/>
		</g>
	</g>
</svg>